<?xml version="1.0" standalone="no"?>
<!DOCTYPE svg PUBLIC "-//W3C//DTD SVG 20010904//EN"
 "http://www.w3.org/TR/2001/REC-SVG-20010904/DTD/svg10.dtd">
<svg version="1.0" xmlns="http://www.w3.org/2000/svg"
 width="500.000000pt" height="500.000000pt" viewBox="0 0 500.000000 500.000000"
 preserveAspectRatio="xMidYMid meet">

<g transform="translate(0.000000,500.000000) scale(0.100000,-0.100000)"
fill="#000000" stroke="none">
<path d="M1380 3130 l0 -320 481 2 482 3 14 40 c39 107 24 296 -32 391 -53 90
-177 172 -294 194 -29 6 -188 10 -352 10 l-299 0 0 -320z m569 30 c69 -39 86
-69 86 -153 0 -59 -4 -78 -23 -105 -40 -55 -92 -75 -209 -80 l-103 -4 0 187 0
187 103 -4 c86 -3 109 -7 146 -28z"/>
<path d="M2546 3418 c-3 -18 -15 -141 -26 -273 -11 -132 -23 -261 -27 -287
l-6 -48 161 0 161 0 4 33 3 32 13 -32 13 -33 149 0 149 0 -18 48 c-10 26 -65
170 -123 319 l-104 273 -172 0 -172 0 -5 -32z"/>
<path d="M3407 3148 c-64 -167 -119 -311 -123 -320 -6 -17 5 -18 144 -18 l150
0 7 30 c4 17 11 30 16 30 5 0 9 -13 9 -30 l0 -30 159 0 160 0 -5 33 c-2 17
-13 138 -24 267 -11 129 -23 259 -26 288 l-6 52 -173 0 -172 0 -116 -302z"/>
<path d="M2260 2605 l0 -75 53 0 c29 0 58 5 65 12 15 15 16 58 2 58 -7 0 -7 6
0 19 13 25 13 27 -6 45 -10 10 -33 16 -65 16 l-49 0 0 -75z m95 35 c0 -10 -12
-16 -32 -18 -28 -3 -33 0 -33 18 0 18 5 21 33 18 20 -2 32 -8 32 -18z m11 -62
c9 -14 -15 -28 -48 -28 -21 0 -28 5 -28 19 0 11 5 21 12 23 18 6 57 -3 64 -14z"/>
<path d="M2434 2607 c-29 -68 -29 -103 1 -60 17 24 73 23 91 -2 7 -9 17 -15
23 -14 14 5 -55 149 -71 149 -7 0 -27 -33 -44 -73z m60 17 c10 -26 7 -34 -14
-34 -11 0 -20 4 -20 9 0 17 12 41 20 41 4 0 11 -7 14 -16z"/>
<path d="M2579 2673 c-1 -5 -2 -38 -3 -75 -1 -49 2 -68 11 -68 9 0 13 15 13
45 0 25 3 45 8 45 4 0 22 -21 41 -45 49 -66 61 -60 61 30 0 60 -3 75 -15 75
-11 0 -15 -12 -15 -51 l0 -52 -41 52 c-38 48 -57 61 -60 44z"/>
<path d="M2755 2655 c-14 -13 -25 -36 -25 -50 0 -38 42 -75 83 -75 19 0 40 6
46 13 16 20 3 27 -25 15 -31 -15 -74 12 -74 47 0 35 43 62 75 47 30 -14 44 2
16 17 -33 18 -70 12 -96 -14z"/>
<path d="M2917 2668 c-40 -31 -36 -115 8 -132 60 -23 115 10 115 69 0 61 -75
99 -123 63z m83 -28 c11 -11 20 -27 20 -35 0 -8 -9 -24 -20 -35 -11 -11 -27
-20 -35 -20 -8 0 -24 9 -35 20 -11 11 -20 27 -20 35 0 8 9 24 20 35 11 11 27
20 35 20 8 0 24 -9 35 -20z"/>
<path d="M1380 2210 l0 -180 160 0 160 0 0 180 0 180 -160 0 -160 0 0 -180z"/>
<path d="M2450 2371 c0 -17 -10 -126 -25 -283 l-6 -58 164 0 164 0 7 103 c3
56 9 137 13 180 l6 77 -162 0 c-151 0 -161 -1 -161 -19z"/>
<path d="M2995 2373 c4 -10 26 -74 50 -143 24 -69 49 -140 55 -157 l12 -33 97
0 98 0 10 33 c6 17 33 96 61 175 l50 142 -220 0 c-206 0 -220 -1 -213 -17z"/>
<path d="M3657 2238 c6 -84 12 -165 12 -180 l1 -28 166 0 c153 0 165 1 160 18
-2 9 -10 90 -17 180 l-12 162 -161 0 -162 0 13 -152z"/>
</g>
</svg>
